<svg width="500" height="500" viewBox="0 0 500 500" fill="none" xmlns="http://www.w3.org/2000/svg">
<path opacity="0.01" fill-rule="evenodd" clip-rule="evenodd" d="M373.5 6.5C374.833 7.16667 374.833 7.16667 373.5 6.5Z" fill="#FEFFFE"/>
<path opacity="0.01" fill-rule="evenodd" clip-rule="evenodd" d="M222.5 23.5C223.833 24.1667 223.833 24.1667 222.5 23.5Z" fill="#FEFFFE"/>
<path opacity="0.987" fill-rule="evenodd" clip-rule="evenodd" d="M314.5 195.5C302.5 195.5 290.5 195.5 278.5 195.5C278.263 196.791 278.596 197.791 279.5 198.5C285.483 237.716 290.816 277.049 295.5 316.5C251.5 316.5 207.5 316.5 163.5 316.5C159.516 283.108 155.016 249.775 150 216.5C139.856 221.972 130.856 228.972 123 237.5C115.502 248.49 113.168 260.49 116 273.5C117.262 279.285 118.928 284.952 121 290.5C127.137 304.774 133.804 318.774 141 332.5C142.381 343.886 137.548 351.386 126.5 355C117.69 357.064 110.523 354.564 105 347.5C101.22 340.937 97.7195 334.271 94.4999 327.5C94.0074 325.181 93.0074 323.181 91.4999 321.5C87.8411 315.382 84.8411 308.882 82.4999 302C82.8332 301.667 83.1666 301.333 83.4999 301C72.9094 272.407 74.4094 244.907 87.9999 218.5C107.616 193.43 133.116 177.597 164.5 171C195.523 167.198 226.523 163.198 257.5 159C276.846 158.085 296.179 157.085 315.5 156C323.119 154.937 329.952 152.104 336 147.5C336.494 145.866 336.66 144.199 336.5 142.5C336.737 141.209 336.404 140.209 335.5 139.5C325.316 125.232 311.316 117.399 293.5 116C290.213 114.533 287.546 112.366 285.5 109.5C284.012 106.814 283.345 107.147 283.5 110.5C282.517 116.206 279.183 120.039 273.5 122C267.406 124.327 261.24 124.827 255 123.5C252.223 105.563 250.056 87.5627 248.5 69.5001C250.854 69.1621 253.187 68.6621 255.5 68.0001C237.034 39.8374 211.367 30.1707 178.5 39.0001C157.769 46.5833 144.435 61.0833 138.5 82.5001C141.299 83.0042 143.799 84.0042 146 85.5001C148.402 102.146 150.569 118.813 152.5 135.5C152.5 136.5 152.5 137.5 152.5 138.5C150.265 138.205 148.265 138.539 146.5 139.5C139.2 141.189 132.2 140.356 125.5 137C121.729 131.104 119.563 124.604 119 117.5C117.78 110.867 117.447 104.2 118 97.5001C119.18 92.986 121.846 89.6527 126 87.5001C127.247 78.0292 130.414 69.3625 135.5 61.5001C136.906 61.027 137.573 60.027 137.5 58.5001C140.49 52.0623 144.823 46.5623 150.5 42.0001C182.054 18.221 214.054 17.5543 246.5 40.0001C255.259 47.7554 262.092 56.922 267 67.5001C271.311 68.822 274.977 71.1554 278 74.5001C279.824 78.8172 281.491 83.1505 283 87.5001C287.211 81.4739 293.044 78.1405 300.5 77.5001C324.23 79.4509 344.396 88.7842 361 105.5C374.541 121.33 378.541 139.33 373 159.5C364.525 177.172 350.692 188.339 331.5 193C325.924 194.485 320.257 195.318 314.5 195.5Z" fill="#D10000"/>
<path opacity="0.01" fill-rule="evenodd" clip-rule="evenodd" d="M262.5 29.5C263.833 30.1667 263.833 30.1667 262.5 29.5Z" fill="#FEFFFE"/>
<path opacity="0.01" fill-rule="evenodd" clip-rule="evenodd" d="M260.5 46.5C261.833 47.1667 261.833 47.1667 260.5 46.5Z" fill="#FEFFFE"/>
<path opacity="0.988" fill-rule="evenodd" clip-rule="evenodd" d="M193.5 55.4999C223.425 54.6098 241.925 68.6098 249 97.4999C250.896 123.547 239.729 141.38 215.5 151C187.232 156.949 167.065 146.783 155 120.5C148.342 95.7982 155.509 76.2982 176.5 61.9999C182.058 59.2073 187.725 57.0407 193.5 55.4999Z" fill="#CF0000"/>
<path opacity="0.01" fill-rule="evenodd" clip-rule="evenodd" d="M277.5 56.5C278.833 57.1667 278.833 57.1667 277.5 56.5Z" fill="#FEFFFE"/>
<path opacity="0.01" fill-rule="evenodd" clip-rule="evenodd" d="M276.5 69.5C277.833 70.1667 277.833 70.1667 276.5 69.5Z" fill="#FEFF00"/>
<path opacity="0.01" fill-rule="evenodd" clip-rule="evenodd" d="M74.5 78.5C75.8333 79.1667 75.8333 79.1667 74.5 78.5Z" fill="#FEFFFE"/>
<path opacity="0.01" fill-rule="evenodd" clip-rule="evenodd" d="M473.5 83.5C474.833 84.1667 474.833 84.1667 473.5 83.5Z" fill="#FEFFFE"/>
<path opacity="0.01" fill-rule="evenodd" clip-rule="evenodd" d="M445.5 85.5C446.833 86.1667 446.833 86.1667 445.5 85.5Z" fill="#FEFFFE"/>
<path opacity="0.01" fill-rule="evenodd" clip-rule="evenodd" d="M440.5 97.5C441.833 98.1667 441.833 98.1667 440.5 97.5Z" fill="#FEFFFE"/>
<path opacity="0.01" fill-rule="evenodd" clip-rule="evenodd" d="M482.5 105.5C483.833 106.167 483.833 106.167 482.5 105.5Z" fill="#FEFFFE"/>
<path opacity="0.024" fill-rule="evenodd" clip-rule="evenodd" d="M285.5 109.5C284.833 109.833 284.167 110.167 283.5 110.5C283.345 107.147 284.012 106.814 285.5 109.5Z" fill="#C7C7C7"/>
<path opacity="0.01" fill-rule="evenodd" clip-rule="evenodd" d="M115.5 109.5C116.833 110.167 116.833 110.167 115.5 109.5Z" fill="#FEFFFE"/>
<path opacity="0.01" fill-rule="evenodd" clip-rule="evenodd" d="M115.5 120.5C116.833 121.167 116.833 121.167 115.5 120.5Z" fill="#FEFFFE"/>
<path opacity="0.01" fill-rule="evenodd" clip-rule="evenodd" d="M54.5 121.5C55.8333 122.167 55.8333 122.167 54.5 121.5Z" fill="#FEFFFE"/>
<path opacity="0.012" fill-rule="evenodd" clip-rule="evenodd" d="M335.5 139.5C336.404 140.209 336.737 141.209 336.5 142.5C335.733 141.828 335.066 140.995 334.5 140C334.728 139.601 335.062 139.435 335.5 139.5Z" fill="#D8D8D8"/>
<path opacity="0.01" fill-rule="evenodd" clip-rule="evenodd" d="M485.5 149.5C486.833 150.167 486.833 150.167 485.5 149.5Z" fill="#FEFFFE"/>
<path opacity="0.01" fill-rule="evenodd" clip-rule="evenodd" d="M52.5 151.5C53.8333 152.167 53.8333 152.167 52.5 151.5Z" fill="#FEFFFE"/>
<path opacity="0.01" fill-rule="evenodd" clip-rule="evenodd" d="M96.5 152.5C97.8333 153.167 97.8333 153.167 96.5 152.5Z" fill="#FEFFFE"/>
<path opacity="0.01" fill-rule="evenodd" clip-rule="evenodd" d="M149.5 157.5C150.833 158.167 150.833 158.167 149.5 157.5Z" fill="#FEFFFE"/>
<path opacity="0.01" fill-rule="evenodd" clip-rule="evenodd" d="M434.5 163.5C435.833 164.167 435.833 164.167 434.5 163.5Z" fill="#FEFFFE"/>
<path opacity="0.01" fill-rule="evenodd" clip-rule="evenodd" d="M494.5 185.5C495.833 186.167 495.833 186.167 494.5 185.5Z" fill="#FEFFFE"/>
<path opacity="0.01" fill-rule="evenodd" clip-rule="evenodd" d="M423.5 187.5C424.833 188.167 424.833 188.167 423.5 187.5Z" fill="#FEFFFE"/>
<path opacity="0.01" fill-rule="evenodd" clip-rule="evenodd" d="M405.5 220.5C406.833 221.167 406.833 221.167 405.5 220.5Z" fill="#FEFFFE"/>
<path opacity="0.01" fill-rule="evenodd" clip-rule="evenodd" d="M440.5 253.5C441.833 254.167 441.833 254.167 440.5 253.5Z" fill="#FEFFFE"/>
<path opacity="0.01" fill-rule="evenodd" clip-rule="evenodd" d="M141.5 255.5C142.833 256.167 142.833 256.167 141.5 255.5Z" fill="#FEFFFE"/>
<path opacity="0.01" fill-rule="evenodd" clip-rule="evenodd" d="M64.5 274.5C65.8333 275.167 65.8333 275.167 64.5 274.5Z" fill="#FEFFFE"/>
<path opacity="0.01" fill-rule="evenodd" clip-rule="evenodd" d="M351.5 278.5C352.833 279.167 352.833 279.167 351.5 278.5Z" fill="#FEFFFE"/>
<path opacity="0.01" fill-rule="evenodd" clip-rule="evenodd" d="M457.5 283.5C458.833 284.167 458.833 284.167 457.5 283.5Z" fill="#FEFFFE"/>
<path opacity="0.01" fill-rule="evenodd" clip-rule="evenodd" d="M405.5 296.5C406.833 297.167 406.833 297.167 405.5 296.5Z" fill="#FEFFFE"/>
<path opacity="0.01" fill-rule="evenodd" clip-rule="evenodd" d="M156.5 297.5C157.833 298.167 157.833 298.167 156.5 297.5Z" fill="#FEFFFE"/>
<path opacity="0.01" fill-rule="evenodd" clip-rule="evenodd" d="M421.5 299.5C422.833 300.167 422.833 300.167 421.5 299.5Z" fill="#FEFFFE"/>
<path opacity="0.01" fill-rule="evenodd" clip-rule="evenodd" d="M39.5 302.5C40.8333 303.167 40.8333 303.167 39.5 302.5Z" fill="#FEFFFE"/>
<path opacity="0.01" fill-rule="evenodd" clip-rule="evenodd" d="M307.5 309.5C308.833 310.167 308.833 310.167 307.5 309.5Z" fill="#FEFFFE"/>
<path opacity="0.986" fill-rule="evenodd" clip-rule="evenodd" d="M99.5 352.5C98.8333 353.167 98.1667 353.833 97.5 354.5C89.3133 357.175 82.1466 361.509 76 367.5C72.6322 372.623 72.7988 377.623 76.5 382.5C76.8333 383.5 77.5 384.167 78.5 384.5C91.7836 393.318 106.45 398.485 122.5 400C149.425 403.979 176.092 402.645 202.5 396C213.577 393.636 222.91 388.469 230.5 380.5C232.382 379.779 232.715 378.779 231.5 377.5C232.792 374.304 232.292 371.304 230 368.5C224.923 362.712 218.756 358.545 211.5 356C191.024 349.432 170.024 346.265 148.5 346.5C149.159 343.545 149.492 340.545 149.5 337.5C148.622 334.239 147.956 330.906 147.5 327.5C237.16 325.503 327.16 324.836 417.5 325.5C426.41 324.706 433.244 328.039 438 335.5C448.508 364.19 458.008 392.857 466.5 421.5C332.336 423.166 198.003 424.166 63.5 424.5C52.8333 424.5 42.1667 424.5 31.5 424.5C38.2996 400.564 45.9663 376.897 54.5 353.5C56.2132 352.365 56.8799 350.698 56.5 348.5C56.595 346.214 57.2616 344.214 58.5 342.5C59.9313 341.22 60.5979 339.553 60.5 337.5C65.2226 327.404 73.2226 323.237 84.5 325C89.6394 334.114 94.6394 343.28 99.5 352.5ZM271.5 365.5C272.5 365.167 273.167 364.5 273.5 363.5C286.337 355.615 300.337 350.782 315.5 349C342.399 345.433 369.066 346.767 395.5 353C406.043 355.354 415.21 360.187 423 367.5C427.065 374.909 425.565 381.076 418.5 386C407.465 392.901 395.465 397.235 382.5 399C353.616 404.199 324.95 403.199 296.5 396C286.464 393.733 277.631 389.233 270 382.5C264.945 376.295 265.445 370.628 271.5 365.5Z" fill="#FF2424"/>
<path opacity="0.01" fill-rule="evenodd" clip-rule="evenodd" d="M0.5 344.5C1.83333 345.167 1.83333 345.167 0.5 344.5Z" fill="#FEFFFE"/>
<path opacity="0.012" fill-rule="evenodd" clip-rule="evenodd" d="M99.5 352.5C100.043 352.56 100.376 352.893 100.5 353.5C99.675 354.386 98.675 354.719 97.5 354.5C98.1667 353.833 98.8333 353.167 99.5 352.5Z" fill="#898989"/>
<path opacity="0.01" fill-rule="evenodd" clip-rule="evenodd" d="M48.5 354.5C49.8333 355.167 49.8333 355.167 48.5 354.5Z" fill="#FEFFFE"/>
<path opacity="0.01" fill-rule="evenodd" clip-rule="evenodd" d="M452.5 357.5C453.833 358.167 453.833 358.167 452.5 357.5Z" fill="#FEFFFE"/>
<path opacity="0.01" fill-rule="evenodd" clip-rule="evenodd" d="M96.5 360.5C97.8333 361.167 97.8333 361.167 96.5 360.5Z" fill="#FEFFFE"/>
<path opacity="0.972" fill-rule="evenodd" clip-rule="evenodd" d="M145.5 360.5C153.947 360.199 162.28 361.032 170.5 363C175.089 364.271 178.423 366.938 180.5 371C177.347 375.418 173.014 378.085 167.5 379C154.219 381.551 141.219 380.551 128.5 376C125.604 374.07 124.604 371.57 125.5 368.5C131.54 364.047 138.207 361.38 145.5 360.5Z" fill="#090909"/>
<path opacity="0.972" fill-rule="evenodd" clip-rule="evenodd" d="M339.5 360.5C350.32 359.748 360.654 361.581 370.5 366C375.287 368.555 375.62 371.555 371.5 375C354.823 382.332 338.156 382.332 321.5 375C320.13 373.559 319.13 371.892 318.5 370C320.234 367.3 322.568 365.3 325.5 364C330.278 362.751 334.945 361.584 339.5 360.5Z" fill="#090909"/>
<path opacity="0.012" fill-rule="evenodd" clip-rule="evenodd" d="M273.5 363.5C273.167 364.5 272.5 365.167 271.5 365.5C271.5 364.167 272.167 363.5 273.5 363.5Z" fill="#ADADAD"/>
<path opacity="0.01" fill-rule="evenodd" clip-rule="evenodd" d="M84.5 366.5C85.8333 367.167 85.8333 367.167 84.5 366.5Z" fill="#FEFFFE"/>
<path opacity="0.125" fill-rule="evenodd" clip-rule="evenodd" d="M231.5 377.5C232.715 378.779 232.382 379.779 230.5 380.5C230.557 379.391 230.89 378.391 231.5 377.5Z" fill="#808080"/>
<path opacity="0.01" fill-rule="evenodd" clip-rule="evenodd" d="M76.5 382.5C77.8333 382.5 78.5 383.167 78.5 384.5C77.5 384.167 76.8333 383.5 76.5 382.5Z" fill="#CFCFCF"/>
<path opacity="0.01" fill-rule="evenodd" clip-rule="evenodd" d="M24.5 383.5C25.8333 384.167 25.8333 384.167 24.5 383.5Z" fill="#FEFFFE"/>
<path opacity="0.01" fill-rule="evenodd" clip-rule="evenodd" d="M5.5 409.5C6.83333 410.167 6.83333 410.167 5.5 409.5Z" fill="#FEFFFE"/>
<path opacity="0.01" fill-rule="evenodd" clip-rule="evenodd" d="M434.5 426.5C435.833 427.167 435.833 427.167 434.5 426.5Z" fill="#FEFFFE"/>
<path opacity="0.985" fill-rule="evenodd" clip-rule="evenodd" d="M467.5 433.5C467.923 443.58 467.423 453.58 466 463.5C463.201 469.825 458.368 473.659 451.5 475C316.833 475.667 182.167 475.667 47.5 475C39.3445 473.343 34.3445 468.51 32.5 460.5C32.5 451.5 32.5 442.5 32.5 433.5C177.5 433.5 322.5 433.5 467.5 433.5ZM415.5 447.5C421.279 446.387 424.612 448.72 425.5 454.5C422.73 461.155 418.564 462.155 413 457.5C411.861 453.579 412.695 450.246 415.5 447.5ZM443.5 447.5C451.33 446.495 454.496 449.828 453 457.5C446.977 462.162 442.477 460.996 439.5 454C440.234 451.439 441.567 449.273 443.5 447.5Z" fill="#FF2424"/>
<path opacity="0.01" fill-rule="evenodd" clip-rule="evenodd" d="M157.5 478.5C158.833 479.167 158.833 479.167 157.5 478.5Z" fill="#FEFFFE"/>
<path opacity="0.01" fill-rule="evenodd" clip-rule="evenodd" d="M129.5 481.5C130.833 482.167 130.833 482.167 129.5 481.5Z" fill="#FEFFFE"/>
<path opacity="0.01" fill-rule="evenodd" clip-rule="evenodd" d="M196.5 491.5C197.833 492.167 197.833 492.167 196.5 491.5Z" fill="#FEFFFE"/>
<path opacity="0.01" fill-rule="evenodd" clip-rule="evenodd" d="M198.5 492.5C199.833 493.167 199.833 493.167 198.5 492.5Z" fill="#FEFFFE"/>
</svg>
